<?xml version="1.0" encoding="utf-8"?>
<!-- Generator: Adobe Illustrator 16.0.0, SVG Export Plug-In . SVG Version: 6.00 Build 0)  -->
<!DOCTYPE svg PUBLIC "-//W3C//DTD SVG 1.1//EN" "http://www.w3.org/Graphics/SVG/1.1/DTD/svg11.dtd">
<svg version="1.1" id="Layer_1" xmlns="http://www.w3.org/2000/svg" xmlns:xlink="http://www.w3.org/1999/xlink" x="0px" y="0px"
	 width="250px" height="250px" viewBox="0 0 250 250" style="enable-background:new 0 0 250 250;" xml:space="preserve">
<style type="text/css">
<![CDATA[
	.st0{clip-path:url(#SVGID_16_);fill:#111111;}
	.st1{clip-path:url(#SVGID_2_);}
	.st2{clip-path:url(#SVGID_10_);}
	.st3{clip-path:url(#SVGID_11_);}
	.st4{clip-path:url(#SVGID_12_);}
	.st5{clip-path:url(#SVGID_13_);}
	.st6{clip-path:url(#SVGID_14_);}
	.st7{clip-path:url(#SVGID_15_);}
]]>
</style>
<g>
	<g>
		<g>
			<defs>
				<rect id="SVGID_1_" x="0" width="250" height="250"/>
			</defs>
			<clipPath id="SVGID_2_">
				<use xlink:href="#SVGID_1_"  style="overflow:visible;"/>
			</clipPath>
			<g class="st1">
				<g>
					<defs>
						<rect id="SVGID_3_" x="0" width="250" height="250"/>
					</defs>
					<defs>
						<rect id="SVGID_4_" x="0" width="250" height="250"/>
					</defs>
					<defs>
						<rect id="SVGID_5_" x="0" width="250" height="250"/>
					</defs>
					<defs>
						<rect id="SVGID_6_" x="0" width="250" height="250"/>
					</defs>
					<defs>
						<rect id="SVGID_7_" x="0" width="250" height="250"/>
					</defs>
					<defs>
						<rect id="SVGID_8_" x="0" width="250" height="250"/>
					</defs>
					<defs>
						<rect id="SVGID_9_" x="0" width="250" height="250"/>
					</defs>
					<clipPath id="SVGID_10_">
						<use xlink:href="#SVGID_3_"  style="overflow:visible;"/>
					</clipPath>
					<clipPath id="SVGID_11_" class="st2">
						<use xlink:href="#SVGID_4_"  style="overflow:visible;"/>
					</clipPath>
					<clipPath id="SVGID_12_" class="st3">
						<use xlink:href="#SVGID_5_"  style="overflow:visible;"/>
					</clipPath>
					<clipPath id="SVGID_13_" class="st4">
						<use xlink:href="#SVGID_6_"  style="overflow:visible;"/>
					</clipPath>
					<clipPath id="SVGID_14_" class="st5">
						<use xlink:href="#SVGID_7_"  style="overflow:visible;"/>
					</clipPath>
					<clipPath id="SVGID_15_" class="st6">
						<use xlink:href="#SVGID_8_"  style="overflow:visible;"/>
					</clipPath>
					<clipPath id="SVGID_16_" class="st7">
						<use xlink:href="#SVGID_9_"  style="overflow:visible;"/>
					</clipPath>
					<path class="st0" d="M204.668,241.474c0.61-0.79,0.913-1.67,0.913-2.7c0-1.171-0.288-2.042-0.875-2.65
						c-0.581-0.596-1.439-0.883-2.628-0.883c-0.703,0-1.66,0.17-2.851,0.516l-0.021,5.797c0.727,0.743,1.771,1.099,3.188,1.099
						C203.319,242.651,204.046,242.28,204.668,241.474"/>
					<path class="st0" d="M0,123.297v71.418c0,30.531,25.836,55.285,57.721,55.285h16.316L0,123.297z"/>
					<path class="st0" d="M250,126.7V55.278C250,24.754,224.167,0,192.28,0h-16.314L250,126.7z"/>
					<path class="st0" d="M129.332,0H57.72C25.836,0,0,24.753,0,55.279v18.5L129.332,0z"/>
					<path class="st0" d="M172.302,242.736c1.755,0,2.636-0.071,3.079-0.136v-2.17c-1.028-0.235-2.119-0.357-3.269-0.357
						c-0.901,0-1.688,0.132-2.32,0.391c-0.951,0.386-0.951,0.838-0.951,1.032c0,0.595,0.229,0.887,0.825,1.07
						C169.915,242.629,170.573,242.736,172.302,242.736"/>
					<path class="st0" d="M189.696,236.123c-0.574-0.596-1.432-0.883-2.618-0.883c-0.706,0-1.668,0.17-2.85,0.516l-0.021,5.797
						c0.719,0.743,1.76,1.099,3.18,1.099c0.93,0,1.655-0.371,2.276-1.178c0.607-0.79,0.907-1.672,0.907-2.7
						C190.571,237.603,190.288,236.73,189.696,236.123"/>
					<path class="st0" d="M151.887,232.195l0.167,0.345c0.959,2.032,1.901,4.027,2.795,5.938c0.857,1.777,1.436,2.873,1.827,3.559
						l4.595-10.05h3.749l-7.19,15.41c-0.383,0.827-0.737,1.386-1.126,1.739c-0.564,0.528-1.311,0.794-2.217,0.794
						c-0.873,0-1.884-0.169-3.107-0.514l-0.699-0.202v-3.588l1.315,0.492c1.337,0.501,2.067,0.599,2.452,0.599
						c0,0,0.153-0.054,0.393-0.469c0.037-0.068,0.127-0.242,0.279-0.631c-0.461-0.269-0.775-0.556-0.961-0.901
						c-0.833-1.492-1.797-3.396-2.864-5.657c-0.787-1.725-1.584-3.444-2.384-5.176L120.669,250h71.61
						c1.191,0,2.366-0.043,3.534-0.11h-0.147v-17.283h0.982c0.535,0,1.392-0.102,2.532-0.303c1.278-0.212,2.22-0.317,2.898-0.317
						c4.541,0,6.935,2.347,6.935,6.787c0,1.861-0.592,3.501-1.755,4.879c-1.283,1.493-2.92,2.246-4.862,2.246
						c-1.004,0-2.071-0.227-3.188-0.681v4.37c28.616-3.275,50.793-26.591,50.793-54.874v-18.492L151.887,232.195z M178.823,244.687
						l-0.603,0.248c-1.576,0.652-3.644,0.964-6.318,0.964c-1.916,0-3.272-0.179-4.143-0.552c-1.072-0.451-2.356-1.488-2.356-3.833
						c0-1.653,0.861-2.946,2.497-3.74c1.146-0.578,2.545-0.869,4.146-0.869c0.881,0,1.993,0.079,3.348,0.239l0.011-0.91
						c0-0.267-0.089-0.387-0.178-0.476c-0.173-0.177-0.795-0.581-2.718-0.581c-1.147,0-2.811,0.306-4.937,0.914l-1.241,0.354v-3.682
						l0.808-0.142c2.326-0.396,4.086-0.598,5.371-0.598c5.217,0,6.312,2.319,6.312,4.268V244.687L178.823,244.687z M192.25,243.652
						c-1.281,1.493-2.915,2.246-4.862,2.246c-1.003,0-2.071-0.227-3.18-0.681v4.672h-3.549v-17.284h0.977
						c0.548,0,1.397-0.103,2.548-0.302c1.261-0.212,2.213-0.318,2.896-0.318c4.533,0,6.935,2.347,6.935,6.786
						C194.012,240.635,193.417,242.274,192.25,243.652"/>
				</g>
			</g>
		</g>
	</g>
</g>
</svg>
