<?xml version='1.0' encoding='ASCII' standalone='yes'?>
<svg xmlns="http://www.w3.org/2000/svg" version="1.1" width="275.0px" height="275.0px" viewbox="0 0 275.0px 275.0px">
  <g>
    <g transform=" translate(10.41337, 10.41337) scale(1) translate(25.033425, 27.033425) scale(2.09083577171) rotate(-120.000000 47.333500 47.333500)">
      <rect height="1mm" width="1mm" x="0mm" y="0mm"/>
      <rect height="1mm" width="1mm" x="1mm" y="0mm"/>
      <rect height="1mm" width="1mm" x="2mm" y="0mm"/>
      <rect height="1mm" width="1mm" x="3mm" y="0mm"/>
      <rect height="1mm" width="1mm" x="4mm" y="0mm"/>
      <rect height="1mm" width="1mm" x="5mm" y="0mm"/>
      <rect height="1mm" width="1mm" x="6mm" y="0mm"/>
      <rect height="1mm" width="1mm" x="8mm" y="0mm"/>
      <rect height="1mm" width="1mm" x="9mm" y="0mm"/>
      <rect height="1mm" width="1mm" x="10mm" y="0mm"/>
      <rect height="1mm" width="1mm" x="11mm" y="0mm"/>
      <rect height="1mm" width="1mm" x="13mm" y="0mm"/>
      <rect height="1mm" width="1mm" x="16mm" y="0mm"/>
      <rect height="1mm" width="1mm" x="18mm" y="0mm"/>
      <rect height="1mm" width="1mm" x="19mm" y="0mm"/>
      <rect height="1mm" width="1mm" x="20mm" y="0mm"/>
      <rect height="1mm" width="1mm" x="21mm" y="0mm"/>
      <rect height="1mm" width="1mm" x="22mm" y="0mm"/>
      <rect height="1mm" width="1mm" x="23mm" y="0mm"/>
      <rect height="1mm" width="1mm" x="24mm" y="0mm"/>
      <rect height="1mm" width="1mm" x="0mm" y="1mm"/>
      <rect height="1mm" width="1mm" x="6mm" y="1mm"/>
      <rect height="1mm" width="1mm" x="11mm" y="1mm"/>
      <rect height="1mm" width="1mm" x="12mm" y="1mm"/>
      <rect height="1mm" width="1mm" x="13mm" y="1mm"/>
      <rect height="1mm" width="1mm" x="14mm" y="1mm"/>
      <rect height="1mm" width="1mm" x="18mm" y="1mm"/>
      <rect height="1mm" width="1mm" x="24mm" y="1mm"/>
      <rect height="1mm" width="1mm" x="0mm" y="2mm"/>
      <rect height="1mm" width="1mm" x="2mm" y="2mm"/>
      <rect height="1mm" width="1mm" x="3mm" y="2mm"/>
      <rect height="1mm" width="1mm" x="4mm" y="2mm"/>
      <rect height="1mm" width="1mm" x="6mm" y="2mm"/>
      <rect height="1mm" width="1mm" x="9mm" y="2mm"/>
      <rect height="1mm" width="1mm" x="11mm" y="2mm"/>
      <rect height="1mm" width="1mm" x="13mm" y="2mm"/>
      <rect height="1mm" width="1mm" x="15mm" y="2mm"/>
      <rect height="1mm" width="1mm" x="16mm" y="2mm"/>
      <rect height="1mm" width="1mm" x="18mm" y="2mm"/>
      <rect height="1mm" width="1mm" x="20mm" y="2mm"/>
      <rect height="1mm" width="1mm" x="21mm" y="2mm"/>
      <rect height="1mm" width="1mm" x="22mm" y="2mm"/>
      <rect height="1mm" width="1mm" x="24mm" y="2mm"/>
      <rect height="1mm" width="1mm" x="0mm" y="3mm"/>
      <rect height="1mm" width="1mm" x="2mm" y="3mm"/>
      <rect height="1mm" width="1mm" x="3mm" y="3mm"/>
      <rect height="1mm" width="1mm" x="4mm" y="3mm"/>
      <rect height="1mm" width="1mm" x="6mm" y="3mm"/>
      <rect height="1mm" width="1mm" x="10mm" y="3mm"/>
      <rect height="1mm" width="1mm" x="11mm" y="3mm"/>
      <rect height="1mm" width="1mm" x="13mm" y="3mm"/>
      <rect height="1mm" width="1mm" x="14mm" y="3mm"/>
      <rect height="1mm" width="1mm" x="18mm" y="3mm"/>
      <rect height="1mm" width="1mm" x="20mm" y="3mm"/>
      <rect height="1mm" width="1mm" x="21mm" y="3mm"/>
      <rect height="1mm" width="1mm" x="22mm" y="3mm"/>
      <rect height="1mm" width="1mm" x="24mm" y="3mm"/>
      <rect height="1mm" width="1mm" x="0mm" y="4mm"/>
      <rect height="1mm" width="1mm" x="2mm" y="4mm"/>
      <rect height="1mm" width="1mm" x="3mm" y="4mm"/>
      <rect height="1mm" width="1mm" x="4mm" y="4mm"/>
      <rect height="1mm" width="1mm" x="6mm" y="4mm"/>
      <rect height="1mm" width="1mm" x="10mm" y="4mm"/>
      <rect height="1mm" width="1mm" x="11mm" y="4mm"/>
      <rect height="1mm" width="1mm" x="12mm" y="4mm"/>
      <rect height="1mm" width="1mm" x="18mm" y="4mm"/>
      <rect height="1mm" width="1mm" x="20mm" y="4mm"/>
      <rect height="1mm" width="1mm" x="21mm" y="4mm"/>
      <rect height="1mm" width="1mm" x="22mm" y="4mm"/>
      <rect height="1mm" width="1mm" x="24mm" y="4mm"/>
      <rect height="1mm" width="1mm" x="0mm" y="5mm"/>
      <rect height="1mm" width="1mm" x="6mm" y="5mm"/>
      <rect height="1mm" width="1mm" x="9mm" y="5mm"/>
      <rect height="1mm" width="1mm" x="11mm" y="5mm"/>
      <rect height="1mm" width="1mm" x="18mm" y="5mm"/>
      <rect height="1mm" width="1mm" x="24mm" y="5mm"/>
      <rect height="1mm" width="1mm" x="0mm" y="6mm"/>
      <rect height="1mm" width="1mm" x="1mm" y="6mm"/>
      <rect height="1mm" width="1mm" x="2mm" y="6mm"/>
      <rect height="1mm" width="1mm" x="3mm" y="6mm"/>
      <rect height="1mm" width="1mm" x="4mm" y="6mm"/>
      <rect height="1mm" width="1mm" x="5mm" y="6mm"/>
      <rect height="1mm" width="1mm" x="6mm" y="6mm"/>
      <rect height="1mm" width="1mm" x="8mm" y="6mm"/>
      <rect height="1mm" width="1mm" x="10mm" y="6mm"/>
      <rect height="1mm" width="1mm" x="12mm" y="6mm"/>
      <rect height="1mm" width="1mm" x="14mm" y="6mm"/>
      <rect height="1mm" width="1mm" x="16mm" y="6mm"/>
      <rect height="1mm" width="1mm" x="18mm" y="6mm"/>
      <rect height="1mm" width="1mm" x="19mm" y="6mm"/>
      <rect height="1mm" width="1mm" x="20mm" y="6mm"/>
      <rect height="1mm" width="1mm" x="21mm" y="6mm"/>
      <rect height="1mm" width="1mm" x="22mm" y="6mm"/>
      <rect height="1mm" width="1mm" x="23mm" y="6mm"/>
      <rect height="1mm" width="1mm" x="24mm" y="6mm"/>
      <rect height="1mm" width="1mm" x="8mm" y="7mm"/>
      <rect height="1mm" width="1mm" x="9mm" y="7mm"/>
      <rect height="1mm" width="1mm" x="12mm" y="7mm"/>
      <rect height="1mm" width="1mm" x="13mm" y="7mm"/>
      <rect height="1mm" width="1mm" x="14mm" y="7mm"/>
      <rect height="1mm" width="1mm" x="0mm" y="8mm"/>
      <rect height="1mm" width="1mm" x="1mm" y="8mm"/>
      <rect height="1mm" width="1mm" x="3mm" y="8mm"/>
      <rect height="1mm" width="1mm" x="4mm" y="8mm"/>
      <rect height="1mm" width="1mm" x="6mm" y="8mm"/>
      <rect height="1mm" width="1mm" x="9mm" y="8mm"/>
      <rect height="1mm" width="1mm" x="12mm" y="8mm"/>
      <rect height="1mm" width="1mm" x="15mm" y="8mm"/>
      <rect height="1mm" width="1mm" x="18mm" y="8mm"/>
      <rect height="1mm" width="1mm" x="24mm" y="8mm"/>
      <rect height="1mm" width="1mm" x="1mm" y="9mm"/>
      <rect height="1mm" width="1mm" x="2mm" y="9mm"/>
      <rect height="1mm" width="1mm" x="3mm" y="9mm"/>
      <rect height="1mm" width="1mm" x="5mm" y="9mm"/>
      <rect height="1mm" width="1mm" x="7mm" y="9mm"/>
      <rect height="1mm" width="1mm" x="10mm" y="9mm"/>
      <rect height="1mm" width="1mm" x="13mm" y="9mm"/>
      <rect height="1mm" width="1mm" x="14mm" y="9mm"/>
      <rect height="1mm" width="1mm" x="15mm" y="9mm"/>
      <rect height="1mm" width="1mm" x="16mm" y="9mm"/>
      <rect height="1mm" width="1mm" x="17mm" y="9mm"/>
      <rect height="1mm" width="1mm" x="19mm" y="9mm"/>
      <rect height="1mm" width="1mm" x="20mm" y="9mm"/>
      <rect height="1mm" width="1mm" x="21mm" y="9mm"/>
      <rect height="1mm" width="1mm" x="22mm" y="9mm"/>
      <rect height="1mm" width="1mm" x="23mm" y="9mm"/>
      <rect height="1mm" width="1mm" x="1mm" y="10mm"/>
      <rect height="1mm" width="1mm" x="2mm" y="10mm"/>
      <rect height="1mm" width="1mm" x="5mm" y="10mm"/>
      <rect height="1mm" width="1mm" x="6mm" y="10mm"/>
      <rect height="1mm" width="1mm" x="7mm" y="10mm"/>
      <rect height="1mm" width="1mm" x="9mm" y="10mm"/>
      <rect height="1mm" width="1mm" x="12mm" y="10mm"/>
      <rect height="1mm" width="1mm" x="13mm" y="10mm"/>
      <rect height="1mm" width="1mm" x="15mm" y="10mm"/>
      <rect height="1mm" width="1mm" x="16mm" y="10mm"/>
      <rect height="1mm" width="1mm" x="17mm" y="10mm"/>
      <rect height="1mm" width="1mm" x="18mm" y="10mm"/>
      <rect height="1mm" width="1mm" x="19mm" y="10mm"/>
      <rect height="1mm" width="1mm" x="20mm" y="10mm"/>
      <rect height="1mm" width="1mm" x="21mm" y="10mm"/>
      <rect height="1mm" width="1mm" x="24mm" y="10mm"/>
      <rect height="1mm" width="1mm" x="1mm" y="11mm"/>
      <rect height="1mm" width="1mm" x="3mm" y="11mm"/>
      <rect height="1mm" width="1mm" x="4mm" y="11mm"/>
      <rect height="1mm" width="1mm" x="7mm" y="11mm"/>
      <rect height="1mm" width="1mm" x="14mm" y="11mm"/>
      <rect height="1mm" width="1mm" x="15mm" y="11mm"/>
      <rect height="1mm" width="1mm" x="17mm" y="11mm"/>
      <rect height="1mm" width="1mm" x="18mm" y="11mm"/>
      <rect height="1mm" width="1mm" x="21mm" y="11mm"/>
      <rect height="1mm" width="1mm" x="22mm" y="11mm"/>
      <rect height="1mm" width="1mm" x="23mm" y="11mm"/>
      <rect height="1mm" width="1mm" x="24mm" y="11mm"/>
      <rect height="1mm" width="1mm" x="1mm" y="12mm"/>
      <rect height="1mm" width="1mm" x="2mm" y="12mm"/>
      <rect height="1mm" width="1mm" x="3mm" y="12mm"/>
      <rect height="1mm" width="1mm" x="6mm" y="12mm"/>
      <rect height="1mm" width="1mm" x="8mm" y="12mm"/>
      <rect height="1mm" width="1mm" x="9mm" y="12mm"/>
      <rect height="1mm" width="1mm" x="10mm" y="12mm"/>
      <rect height="1mm" width="1mm" x="14mm" y="12mm"/>
      <rect height="1mm" width="1mm" x="16mm" y="12mm"/>
      <rect height="1mm" width="1mm" x="18mm" y="12mm"/>
      <rect height="1mm" width="1mm" x="19mm" y="12mm"/>
      <rect height="1mm" width="1mm" x="24mm" y="12mm"/>
      <rect height="1mm" width="1mm" x="1mm" y="13mm"/>
      <rect height="1mm" width="1mm" x="2mm" y="13mm"/>
      <rect height="1mm" width="1mm" x="3mm" y="13mm"/>
      <rect height="1mm" width="1mm" x="5mm" y="13mm"/>
      <rect height="1mm" width="1mm" x="7mm" y="13mm"/>
      <rect height="1mm" width="1mm" x="8mm" y="13mm"/>
      <rect height="1mm" width="1mm" x="9mm" y="13mm"/>
      <rect height="1mm" width="1mm" x="10mm" y="13mm"/>
      <rect height="1mm" width="1mm" x="12mm" y="13mm"/>
      <rect height="1mm" width="1mm" x="13mm" y="13mm"/>
      <rect height="1mm" width="1mm" x="15mm" y="13mm"/>
      <rect height="1mm" width="1mm" x="17mm" y="13mm"/>
      <rect height="1mm" width="1mm" x="20mm" y="13mm"/>
      <rect height="1mm" width="1mm" x="23mm" y="13mm"/>
      <rect height="1mm" width="1mm" x="2mm" y="14mm"/>
      <rect height="1mm" width="1mm" x="6mm" y="14mm"/>
      <rect height="1mm" width="1mm" x="7mm" y="14mm"/>
      <rect height="1mm" width="1mm" x="13mm" y="14mm"/>
      <rect height="1mm" width="1mm" x="15mm" y="14mm"/>
      <rect height="1mm" width="1mm" x="16mm" y="14mm"/>
      <rect height="1mm" width="1mm" x="18mm" y="14mm"/>
      <rect height="1mm" width="1mm" x="21mm" y="14mm"/>
      <rect height="1mm" width="1mm" x="22mm" y="14mm"/>
      <rect height="1mm" width="1mm" x="23mm" y="14mm"/>
      <rect height="1mm" width="1mm" x="24mm" y="14mm"/>
      <rect height="1mm" width="1mm" x="1mm" y="15mm"/>
      <rect height="1mm" width="1mm" x="4mm" y="15mm"/>
      <rect height="1mm" width="1mm" x="7mm" y="15mm"/>
      <rect height="1mm" width="1mm" x="8mm" y="15mm"/>
      <rect height="1mm" width="1mm" x="9mm" y="15mm"/>
      <rect height="1mm" width="1mm" x="12mm" y="15mm"/>
      <rect height="1mm" width="1mm" x="18mm" y="15mm"/>
      <rect height="1mm" width="1mm" x="22mm" y="15mm"/>
      <rect height="1mm" width="1mm" x="24mm" y="15mm"/>
      <rect height="1mm" width="1mm" x="1mm" y="16mm"/>
      <rect height="1mm" width="1mm" x="3mm" y="16mm"/>
      <rect height="1mm" width="1mm" x="4mm" y="16mm"/>
      <rect height="1mm" width="1mm" x="5mm" y="16mm"/>
      <rect height="1mm" width="1mm" x="6mm" y="16mm"/>
      <rect height="1mm" width="1mm" x="7mm" y="16mm"/>
      <rect height="1mm" width="1mm" x="9mm" y="16mm"/>
      <rect height="1mm" width="1mm" x="11mm" y="16mm"/>
      <rect height="1mm" width="1mm" x="12mm" y="16mm"/>
      <rect height="1mm" width="1mm" x="13mm" y="16mm"/>
      <rect height="1mm" width="1mm" x="14mm" y="16mm"/>
      <rect height="1mm" width="1mm" x="15mm" y="16mm"/>
      <rect height="1mm" width="1mm" x="16mm" y="16mm"/>
      <rect height="1mm" width="1mm" x="17mm" y="16mm"/>
      <rect height="1mm" width="1mm" x="18mm" y="16mm"/>
      <rect height="1mm" width="1mm" x="19mm" y="16mm"/>
      <rect height="1mm" width="1mm" x="20mm" y="16mm"/>
      <rect height="1mm" width="1mm" x="22mm" y="16mm"/>
      <rect height="1mm" width="1mm" x="23mm" y="16mm"/>
      <rect height="1mm" width="1mm" x="8mm" y="17mm"/>
      <rect height="1mm" width="1mm" x="9mm" y="17mm"/>
      <rect height="1mm" width="1mm" x="10mm" y="17mm"/>
      <rect height="1mm" width="1mm" x="11mm" y="17mm"/>
      <rect height="1mm" width="1mm" x="14mm" y="17mm"/>
      <rect height="1mm" width="1mm" x="16mm" y="17mm"/>
      <rect height="1mm" width="1mm" x="20mm" y="17mm"/>
      <rect height="1mm" width="1mm" x="23mm" y="17mm"/>
      <rect height="1mm" width="1mm" x="0mm" y="18mm"/>
      <rect height="1mm" width="1mm" x="1mm" y="18mm"/>
      <rect height="1mm" width="1mm" x="2mm" y="18mm"/>
      <rect height="1mm" width="1mm" x="3mm" y="18mm"/>
      <rect height="1mm" width="1mm" x="4mm" y="18mm"/>
      <rect height="1mm" width="1mm" x="5mm" y="18mm"/>
      <rect height="1mm" width="1mm" x="6mm" y="18mm"/>
      <rect height="1mm" width="1mm" x="10mm" y="18mm"/>
      <rect height="1mm" width="1mm" x="12mm" y="18mm"/>
      <rect height="1mm" width="1mm" x="13mm" y="18mm"/>
      <rect height="1mm" width="1mm" x="14mm" y="18mm"/>
      <rect height="1mm" width="1mm" x="16mm" y="18mm"/>
      <rect height="1mm" width="1mm" x="18mm" y="18mm"/>
      <rect height="1mm" width="1mm" x="20mm" y="18mm"/>
      <rect height="1mm" width="1mm" x="21mm" y="18mm"/>
      <rect height="1mm" width="1mm" x="24mm" y="18mm"/>
      <rect height="1mm" width="1mm" x="0mm" y="19mm"/>
      <rect height="1mm" width="1mm" x="6mm" y="19mm"/>
      <rect height="1mm" width="1mm" x="9mm" y="19mm"/>
      <rect height="1mm" width="1mm" x="11mm" y="19mm"/>
      <rect height="1mm" width="1mm" x="13mm" y="19mm"/>
      <rect height="1mm" width="1mm" x="14mm" y="19mm"/>
      <rect height="1mm" width="1mm" x="15mm" y="19mm"/>
      <rect height="1mm" width="1mm" x="16mm" y="19mm"/>
      <rect height="1mm" width="1mm" x="20mm" y="19mm"/>
      <rect height="1mm" width="1mm" x="0mm" y="20mm"/>
      <rect height="1mm" width="1mm" x="2mm" y="20mm"/>
      <rect height="1mm" width="1mm" x="3mm" y="20mm"/>
      <rect height="1mm" width="1mm" x="4mm" y="20mm"/>
      <rect height="1mm" width="1mm" x="6mm" y="20mm"/>
      <rect height="1mm" width="1mm" x="8mm" y="20mm"/>
      <rect height="1mm" width="1mm" x="11mm" y="20mm"/>
      <rect height="1mm" width="1mm" x="13mm" y="20mm"/>
      <rect height="1mm" width="1mm" x="15mm" y="20mm"/>
      <rect height="1mm" width="1mm" x="16mm" y="20mm"/>
      <rect height="1mm" width="1mm" x="17mm" y="20mm"/>
      <rect height="1mm" width="1mm" x="18mm" y="20mm"/>
      <rect height="1mm" width="1mm" x="19mm" y="20mm"/>
      <rect height="1mm" width="1mm" x="20mm" y="20mm"/>
      <rect height="1mm" width="1mm" x="21mm" y="20mm"/>
      <rect height="1mm" width="1mm" x="23mm" y="20mm"/>
      <rect height="1mm" width="1mm" x="24mm" y="20mm"/>
      <rect height="1mm" width="1mm" x="0mm" y="21mm"/>
      <rect height="1mm" width="1mm" x="2mm" y="21mm"/>
      <rect height="1mm" width="1mm" x="3mm" y="21mm"/>
      <rect height="1mm" width="1mm" x="4mm" y="21mm"/>
      <rect height="1mm" width="1mm" x="6mm" y="21mm"/>
      <rect height="1mm" width="1mm" x="8mm" y="21mm"/>
      <rect height="1mm" width="1mm" x="9mm" y="21mm"/>
      <rect height="1mm" width="1mm" x="10mm" y="21mm"/>
      <rect height="1mm" width="1mm" x="12mm" y="21mm"/>
      <rect height="1mm" width="1mm" x="13mm" y="21mm"/>
      <rect height="1mm" width="1mm" x="14mm" y="21mm"/>
      <rect height="1mm" width="1mm" x="15mm" y="21mm"/>
      <rect height="1mm" width="1mm" x="18mm" y="21mm"/>
      <rect height="1mm" width="1mm" x="19mm" y="21mm"/>
      <rect height="1mm" width="1mm" x="21mm" y="21mm"/>
      <rect height="1mm" width="1mm" x="23mm" y="21mm"/>
      <rect height="1mm" width="1mm" x="24mm" y="21mm"/>
      <rect height="1mm" width="1mm" x="0mm" y="22mm"/>
      <rect height="1mm" width="1mm" x="2mm" y="22mm"/>
      <rect height="1mm" width="1mm" x="3mm" y="22mm"/>
      <rect height="1mm" width="1mm" x="4mm" y="22mm"/>
      <rect height="1mm" width="1mm" x="6mm" y="22mm"/>
      <rect height="1mm" width="1mm" x="11mm" y="22mm"/>
      <rect height="1mm" width="1mm" x="13mm" y="22mm"/>
      <rect height="1mm" width="1mm" x="15mm" y="22mm"/>
      <rect height="1mm" width="1mm" x="17mm" y="22mm"/>
      <rect height="1mm" width="1mm" x="19mm" y="22mm"/>
      <rect height="1mm" width="1mm" x="20mm" y="22mm"/>
      <rect height="1mm" width="1mm" x="22mm" y="22mm"/>
      <rect height="1mm" width="1mm" x="23mm" y="22mm"/>
      <rect height="1mm" width="1mm" x="24mm" y="22mm"/>
      <rect height="1mm" width="1mm" x="0mm" y="23mm"/>
      <rect height="1mm" width="1mm" x="6mm" y="23mm"/>
      <rect height="1mm" width="1mm" x="8mm" y="23mm"/>
      <rect height="1mm" width="1mm" x="9mm" y="23mm"/>
      <rect height="1mm" width="1mm" x="10mm" y="23mm"/>
      <rect height="1mm" width="1mm" x="11mm" y="23mm"/>
      <rect height="1mm" width="1mm" x="12mm" y="23mm"/>
      <rect height="1mm" width="1mm" x="13mm" y="23mm"/>
      <rect height="1mm" width="1mm" x="19mm" y="23mm"/>
      <rect height="1mm" width="1mm" x="20mm" y="23mm"/>
      <rect height="1mm" width="1mm" x="22mm" y="23mm"/>
      <rect height="1mm" width="1mm" x="23mm" y="23mm"/>
      <rect height="1mm" width="1mm" x="24mm" y="23mm"/>
      <rect height="1mm" width="1mm" x="0mm" y="24mm"/>
      <rect height="1mm" width="1mm" x="1mm" y="24mm"/>
      <rect height="1mm" width="1mm" x="2mm" y="24mm"/>
      <rect height="1mm" width="1mm" x="3mm" y="24mm"/>
      <rect height="1mm" width="1mm" x="4mm" y="24mm"/>
      <rect height="1mm" width="1mm" x="5mm" y="24mm"/>
      <rect height="1mm" width="1mm" x="6mm" y="24mm"/>
      <rect height="1mm" width="1mm" x="8mm" y="24mm"/>
      <rect height="1mm" width="1mm" x="9mm" y="24mm"/>
      <rect height="1mm" width="1mm" x="10mm" y="24mm"/>
      <rect height="1mm" width="1mm" x="11mm" y="24mm"/>
      <rect height="1mm" width="1mm" x="12mm" y="24mm"/>
      <rect height="1mm" width="1mm" x="13mm" y="24mm"/>
      <rect height="1mm" width="1mm" x="16mm" y="24mm"/>
      <rect height="1mm" width="1mm" x="17mm" y="24mm"/>
      <rect height="1mm" width="1mm" x="21mm" y="24mm"/>
      <rect height="1mm" width="1mm" x="24mm" y="24mm"/>
    </g>
    <g transform=" translate(10.41337, 10.41337) scale(1)"><g xmlns:xlink="http://www.w3.org/1999/xlink">
	<g>
		<g>
			<defs>
				<rect id="SVGID_1_" x="-0.802" y="1.375" width="250" height="250"/>
			</defs>
			<clipPath id="SVGID_2_">
				<use xlink:href="#SVGID_1_" overflow="visible"/>
			</clipPath>
			<g clip-path="url(#SVGID_2_)">
				<g>
					<defs>
						<rect id="SVGID_3_" x="-0.802" y="1.375" width="250" height="250"/>
					</defs>
					<defs>
						<rect id="SVGID_4_" x="-0.802" y="1.375" width="250" height="250"/>
					</defs>
					<defs>
						<rect id="SVGID_5_" x="-0.802" y="1.375" width="250" height="250"/>
					</defs>
					<defs>
						<rect id="SVGID_6_" x="-0.802" y="1.375" width="250" height="250"/>
					</defs>
					<defs>
						<rect id="SVGID_7_" x="-0.802" y="1.375" width="250" height="250"/>
					</defs>
					<defs>
						<rect id="SVGID_8_" x="-0.802" y="1.375" width="250" height="250"/>
					</defs>
					<defs>
						<rect id="SVGID_9_" x="-0.802" y="1.375" width="250" height="250"/>
					</defs>
					<clipPath id="SVGID_10_">
						<use xlink:href="#SVGID_3_" overflow="visible"/>
					</clipPath>
					<clipPath id="SVGID_11_" clip-path="url(#SVGID_10_)">
						<use xlink:href="#SVGID_4_" overflow="visible"/>
					</clipPath>
					<clipPath id="SVGID_12_" clip-path="url(#SVGID_11_)">
						<use xlink:href="#SVGID_5_" overflow="visible"/>
					</clipPath>
					<clipPath id="SVGID_13_" clip-path="url(#SVGID_12_)">
						<use xlink:href="#SVGID_6_" overflow="visible"/>
					</clipPath>
					<clipPath id="SVGID_14_" clip-path="url(#SVGID_13_)">
						<use xlink:href="#SVGID_7_" overflow="visible"/>
					</clipPath>
					<clipPath id="SVGID_15_" clip-path="url(#SVGID_14_)">
						<use xlink:href="#SVGID_8_" overflow="visible"/>
					</clipPath>
					<clipPath id="SVGID_16_" clip-path="url(#SVGID_15_)">
						<use xlink:href="#SVGID_9_" overflow="visible"/>
					</clipPath>
					<path clip-path="url(#SVGID_16_)" fill="#111207" d="M203.866,242.849c0.61-0.79,0.913-1.67,0.913-2.7       c0-1.171-0.288-2.042-0.874-2.65c-0.582-0.596-1.44-0.883-2.629-0.883c-0.703,0-1.66,0.17-2.851,0.516l-0.021,5.797       c0.727,0.743,1.771,1.099,3.188,1.099C202.517,244.026,203.244,243.655,203.866,242.849"/>
					<path clip-path="url(#SVGID_16_)" fill="#111207" d="M-0.802,124.672v71.418c0,30.531,25.836,55.285,57.721,55.285h16.316       L-0.802,124.672z"/>
					<path clip-path="url(#SVGID_16_)" fill="#111207" d="M249.198,128.075V56.653c0-30.523-25.833-55.278-57.72-55.278h-16.314       L249.198,128.075z"/>
					<path clip-path="url(#SVGID_16_)" fill="#111207" d="M128.53,1.375H56.919c-31.884,0-57.721,24.753-57.721,55.279v18.5       L128.53,1.375z"/>
					<path clip-path="url(#SVGID_16_)" fill="#111207" d="M171.501,244.111c1.755,0,2.636-0.071,3.079-0.136v-2.17       c-1.028-0.235-2.119-0.357-3.269-0.357c-0.901,0-1.688,0.132-2.32,0.391c-0.951,0.386-0.951,0.838-0.951,1.032       c0,0.595,0.229,0.887,0.825,1.07C169.113,244.004,169.771,244.111,171.501,244.111"/>
					<path clip-path="url(#SVGID_16_)" fill="#111207" d="M188.894,237.498c-0.574-0.596-1.432-0.883-2.618-0.883       c-0.706,0-1.668,0.17-2.85,0.516l-0.021,5.797c0.719,0.743,1.76,1.099,3.18,1.099c0.93,0,1.655-0.371,2.276-1.178       c0.607-0.79,0.907-1.672,0.907-2.7C189.769,238.978,189.486,238.105,188.894,237.498"/>
					<path clip-path="url(#SVGID_16_)" fill="#111207" d="M151.086,233.57l0.167,0.345c0.959,2.032,1.901,4.027,2.795,5.938       c0.857,1.777,1.436,2.873,1.827,3.559l4.595-10.05h3.749l-7.19,15.41c-0.383,0.827-0.737,1.386-1.126,1.739       c-0.564,0.528-1.311,0.794-2.217,0.794c-0.873,0-1.884-0.169-3.107-0.514l-0.699-0.202v-3.588l1.315,0.492       c1.337,0.501,2.067,0.599,2.452,0.599c0,0,0.153-0.054,0.393-0.469c0.037-0.068,0.127-0.242,0.279-0.631       c-0.461-0.269-0.775-0.556-0.962-0.901c-0.832-1.492-1.796-3.396-2.863-5.657c-0.787-1.725-1.584-3.444-2.384-5.176       l-28.242,16.116h71.61c1.191,0,2.366-0.043,3.534-0.11h-0.147v-17.283h0.982c0.535,0,1.392-0.102,2.532-0.303       c1.278-0.212,2.22-0.317,2.898-0.317c4.541,0,6.935,2.347,6.935,6.787c0,1.861-0.592,3.501-1.755,4.879       c-1.283,1.493-2.92,2.246-4.862,2.246c-1.004,0-2.071-0.227-3.188-0.681v4.37c28.616-3.275,50.793-26.591,50.793-54.874       v-18.492L151.086,233.57z M178.02,246.062l-0.602,0.248c-1.576,0.652-3.644,0.964-6.318,0.964       c-1.916,0-3.272-0.179-4.143-0.552c-1.072-0.451-2.356-1.488-2.356-3.833c0-1.653,0.861-2.946,2.497-3.74       c1.146-0.578,2.545-0.869,4.146-0.869c0.881,0,1.993,0.079,3.348,0.239l0.011-0.91c0-0.267-0.089-0.387-0.178-0.476       c-0.173-0.177-0.795-0.581-2.718-0.581c-1.148,0-2.811,0.306-4.937,0.914l-1.241,0.354v-3.682l0.808-0.142       c2.326-0.396,4.086-0.598,5.371-0.598c5.217,0,6.312,2.319,6.312,4.268V246.062L178.02,246.062z M191.448,245.027       c-1.281,1.493-2.915,2.246-4.862,2.246c-1.003,0-2.071-0.227-3.18-0.681v4.672h-3.549V233.98h0.977       c0.548,0,1.397-0.103,2.548-0.302c1.261-0.212,2.213-0.318,2.896-0.318c4.534,0,6.935,2.347,6.935,6.786       C193.211,242.01,192.615,243.649,191.448,245.027"/>
				</g>
			</g>
		</g>
	</g>
</g>
</g>
  </g>
</svg>
