<?xml version='1.0' encoding='UTF-8'?>
<svg height="250px" version="1.1" width="250px" xmlns="http://www.w3.org/2000/svg"><rect height="10px" width="10px" x="0px" y="0px" /><rect height="10px" width="10px" x="10px" y="0px" /><rect height="10px" width="10px" x="20px" y="0px" /><rect height="10px" width="10px" x="30px" y="0px" /><rect height="10px" width="10px" x="40px" y="0px" /><rect height="10px" width="10px" x="50px" y="0px" /><rect height="10px" width="10px" x="60px" y="0px" /><rect height="10px" width="10px" x="80px" y="0px" /><rect height="10px" width="10px" x="90px" y="0px" /><rect height="10px" width="10px" x="100px" y="0px" /><rect height="10px" width="10px" x="110px" y="0px" /><rect height="10px" width="10px" x="130px" y="0px" /><rect height="10px" width="10px" x="160px" y="0px" /><rect height="10px" width="10px" x="180px" y="0px" /><rect height="10px" width="10px" x="190px" y="0px" /><rect height="10px" width="10px" x="200px" y="0px" /><rect height="10px" width="10px" x="210px" y="0px" /><rect height="10px" width="10px" x="220px" y="0px" /><rect height="10px" width="10px" x="230px" y="0px" /><rect height="10px" width="10px" x="240px" y="0px" /><rect height="10px" width="10px" x="0px" y="10px" /><rect height="10px" width="10px" x="60px" y="10px" /><rect height="10px" width="10px" x="110px" y="10px" /><rect height="10px" width="10px" x="120px" y="10px" /><rect height="10px" width="10px" x="140px" y="10px" /><rect height="10px" width="10px" x="160px" y="10px" /><rect height="10px" width="10px" x="180px" y="10px" /><rect height="10px" width="10px" x="240px" y="10px" /><rect height="10px" width="10px" x="0px" y="20px" /><rect height="10px" width="10px" x="20px" y="20px" /><rect height="10px" width="10px" x="30px" y="20px" /><rect height="10px" width="10px" x="40px" y="20px" /><rect height="10px" width="10px" x="60px" y="20px" /><rect height="10px" width="10px" x="90px" y="20px" /><rect height="10px" width="10px" x="110px" y="20px" /><rect height="10px" width="10px" x="130px" y="20px" /><rect height="10px" width="10px" x="140px" y="20px" /><rect height="10px" width="10px" x="150px" y="20px" /><rect height="10px" width="10px" x="180px" y="20px" /><rect height="10px" width="10px" x="200px" y="20px" /><rect height="10px" width="10px" x="210px" y="20px" /><rect height="10px" width="10px" x="220px" y="20px" /><rect height="10px" width="10px" x="240px" y="20px" /><rect height="10px" width="10px" x="0px" y="30px" /><rect height="10px" width="10px" x="20px" y="30px" /><rect height="10px" width="10px" x="30px" y="30px" /><rect height="10px" width="10px" x="40px" y="30px" /><rect height="10px" width="10px" x="60px" y="30px" /><rect height="10px" width="10px" x="100px" y="30px" /><rect height="10px" width="10px" x="110px" y="30px" /><rect height="10px" width="10px" x="130px" y="30px" /><rect height="10px" width="10px" x="140px" y="30px" /><rect height="10px" width="10px" x="180px" y="30px" /><rect height="10px" width="10px" x="200px" y="30px" /><rect height="10px" width="10px" x="210px" y="30px" /><rect height="10px" width="10px" x="220px" y="30px" /><rect height="10px" width="10px" x="240px" y="30px" /><rect height="10px" width="10px" x="0px" y="40px" /><rect height="10px" width="10px" x="20px" y="40px" /><rect height="10px" width="10px" x="30px" y="40px" /><rect height="10px" width="10px" x="40px" y="40px" /><rect height="10px" width="10px" x="60px" y="40px" /><rect height="10px" width="10px" x="100px" y="40px" /><rect height="10px" width="10px" x="110px" y="40px" /><rect height="10px" width="10px" x="120px" y="40px" /><rect height="10px" width="10px" x="130px" y="40px" /><rect height="10px" width="10px" x="180px" y="40px" /><rect height="10px" width="10px" x="200px" y="40px" /><rect height="10px" width="10px" x="210px" y="40px" /><rect height="10px" width="10px" x="220px" y="40px" /><rect height="10px" width="10px" x="240px" y="40px" /><rect height="10px" width="10px" x="0px" y="50px" /><rect height="10px" width="10px" x="60px" y="50px" /><rect height="10px" width="10px" x="90px" y="50px" /><rect height="10px" width="10px" x="110px" y="50px" /><rect height="10px" width="10px" x="180px" y="50px" /><rect height="10px" width="10px" x="240px" y="50px" /><rect height="10px" width="10px" x="0px" y="60px" /><rect height="10px" width="10px" x="10px" y="60px" /><rect height="10px" width="10px" x="20px" y="60px" /><rect height="10px" width="10px" x="30px" y="60px" /><rect height="10px" width="10px" x="40px" y="60px" /><rect height="10px" width="10px" x="50px" y="60px" /><rect height="10px" width="10px" x="60px" y="60px" /><rect height="10px" width="10px" x="80px" y="60px" /><rect height="10px" width="10px" x="100px" y="60px" /><rect height="10px" width="10px" x="120px" y="60px" /><rect height="10px" width="10px" x="140px" y="60px" /><rect height="10px" width="10px" x="160px" y="60px" /><rect height="10px" width="10px" x="180px" y="60px" /><rect height="10px" width="10px" x="190px" y="60px" /><rect height="10px" width="10px" x="200px" y="60px" /><rect height="10px" width="10px" x="210px" y="60px" /><rect height="10px" width="10px" x="220px" y="60px" /><rect height="10px" width="10px" x="230px" y="60px" /><rect height="10px" width="10px" x="240px" y="60px" /><rect height="10px" width="10px" x="80px" y="70px" /><rect height="10px" width="10px" x="90px" y="70px" /><rect height="10px" width="10px" x="120px" y="70px" /><rect height="10px" width="10px" x="130px" y="70px" /><rect height="10px" width="10px" x="140px" y="70px" /><rect height="10px" width="10px" x="0px" y="80px" /><rect height="10px" width="10px" x="10px" y="80px" /><rect height="10px" width="10px" x="30px" y="80px" /><rect height="10px" width="10px" x="40px" y="80px" /><rect height="10px" width="10px" x="60px" y="80px" /><rect height="10px" width="10px" x="90px" y="80px" /><rect height="10px" width="10px" x="120px" y="80px" /><rect height="10px" width="10px" x="150px" y="80px" /><rect height="10px" width="10px" x="180px" y="80px" /><rect height="10px" width="10px" x="240px" y="80px" /><rect height="10px" width="10px" x="30px" y="90px" /><rect height="10px" width="10px" x="40px" y="90px" /><rect height="10px" width="10px" x="50px" y="90px" /><rect height="10px" width="10px" x="70px" y="90px" /><rect height="10px" width="10px" x="100px" y="90px" /><rect height="10px" width="10px" x="130px" y="90px" /><rect height="10px" width="10px" x="140px" y="90px" /><rect height="10px" width="10px" x="150px" y="90px" /><rect height="10px" width="10px" x="160px" y="90px" /><rect height="10px" width="10px" x="170px" y="90px" /><rect height="10px" width="10px" x="190px" y="90px" /><rect height="10px" width="10px" x="200px" y="90px" /><rect height="10px" width="10px" x="210px" y="90px" /><rect height="10px" width="10px" x="220px" y="90px" /><rect height="10px" width="10px" x="230px" y="90px" /><rect height="10px" width="10px" x="40px" y="100px" /><rect height="10px" width="10px" x="60px" y="100px" /><rect height="10px" width="10px" x="90px" y="100px" /><rect height="10px" width="10px" x="120px" y="100px" /><rect height="10px" width="10px" x="130px" y="100px" /><rect height="10px" width="10px" x="150px" y="100px" /><rect height="10px" width="10px" x="160px" y="100px" /><rect height="10px" width="10px" x="170px" y="100px" /><rect height="10px" width="10px" x="180px" y="100px" /><rect height="10px" width="10px" x="190px" y="100px" /><rect height="10px" width="10px" x="200px" y="100px" /><rect height="10px" width="10px" x="210px" y="100px" /><rect height="10px" width="10px" x="240px" y="100px" /><rect height="10px" width="10px" x="20px" y="110px" /><rect height="10px" width="10px" x="30px" y="110px" /><rect height="10px" width="10px" x="140px" y="110px" /><rect height="10px" width="10px" x="150px" y="110px" /><rect height="10px" width="10px" x="170px" y="110px" /><rect height="10px" width="10px" x="180px" y="110px" /><rect height="10px" width="10px" x="210px" y="110px" /><rect height="10px" width="10px" x="220px" y="110px" /><rect height="10px" width="10px" x="230px" y="110px" /><rect height="10px" width="10px" x="240px" y="110px" /><rect height="10px" width="10px" x="10px" y="120px" /><rect height="10px" width="10px" x="30px" y="120px" /><rect height="10px" width="10px" x="60px" y="120px" /><rect height="10px" width="10px" x="90px" y="120px" /><rect height="10px" width="10px" x="100px" y="120px" /><rect height="10px" width="10px" x="140px" y="120px" /><rect height="10px" width="10px" x="160px" y="120px" /><rect height="10px" width="10px" x="180px" y="120px" /><rect height="10px" width="10px" x="190px" y="120px" /><rect height="10px" width="10px" x="240px" y="120px" /><rect height="10px" width="10px" x="40px" y="130px" /><rect height="10px" width="10px" x="50px" y="130px" /><rect height="10px" width="10px" x="70px" y="130px" /><rect height="10px" width="10px" x="80px" y="130px" /><rect height="10px" width="10px" x="100px" y="130px" /><rect height="10px" width="10px" x="120px" y="130px" /><rect height="10px" width="10px" x="130px" y="130px" /><rect height="10px" width="10px" x="150px" y="130px" /><rect height="10px" width="10px" x="170px" y="130px" /><rect height="10px" width="10px" x="200px" y="130px" /><rect height="10px" width="10px" x="230px" y="130px" /><rect height="10px" width="10px" x="10px" y="140px" /><rect height="10px" width="10px" x="20px" y="140px" /><rect height="10px" width="10px" x="60px" y="140px" /><rect height="10px" width="10px" x="70px" y="140px" /><rect height="10px" width="10px" x="90px" y="140px" /><rect height="10px" width="10px" x="130px" y="140px" /><rect height="10px" width="10px" x="150px" y="140px" /><rect height="10px" width="10px" x="160px" y="140px" /><rect height="10px" width="10px" x="180px" y="140px" /><rect height="10px" width="10px" x="210px" y="140px" /><rect height="10px" width="10px" x="220px" y="140px" /><rect height="10px" width="10px" x="230px" y="140px" /><rect height="10px" width="10px" x="240px" y="140px" /><rect height="10px" width="10px" x="20px" y="150px" /><rect height="10px" width="10px" x="30px" y="150px" /><rect height="10px" width="10px" x="70px" y="150px" /><rect height="10px" width="10px" x="80px" y="150px" /><rect height="10px" width="10px" x="100px" y="150px" /><rect height="10px" width="10px" x="120px" y="150px" /><rect height="10px" width="10px" x="180px" y="150px" /><rect height="10px" width="10px" x="220px" y="150px" /><rect height="10px" width="10px" x="240px" y="150px" /><rect height="10px" width="10px" x="30px" y="160px" /><rect height="10px" width="10px" x="40px" y="160px" /><rect height="10px" width="10px" x="50px" y="160px" /><rect height="10px" width="10px" x="60px" y="160px" /><rect height="10px" width="10px" x="70px" y="160px" /><rect height="10px" width="10px" x="80px" y="160px" /><rect height="10px" width="10px" x="90px" y="160px" /><rect height="10px" width="10px" x="110px" y="160px" /><rect height="10px" width="10px" x="120px" y="160px" /><rect height="10px" width="10px" x="130px" y="160px" /><rect height="10px" width="10px" x="140px" y="160px" /><rect height="10px" width="10px" x="150px" y="160px" /><rect height="10px" width="10px" x="160px" y="160px" /><rect height="10px" width="10px" x="170px" y="160px" /><rect height="10px" width="10px" x="180px" y="160px" /><rect height="10px" width="10px" x="190px" y="160px" /><rect height="10px" width="10px" x="200px" y="160px" /><rect height="10px" width="10px" x="220px" y="160px" /><rect height="10px" width="10px" x="230px" y="160px" /><rect height="10px" width="10px" x="80px" y="170px" /><rect height="10px" width="10px" x="110px" y="170px" /><rect height="10px" width="10px" x="130px" y="170px" /><rect height="10px" width="10px" x="140px" y="170px" /><rect height="10px" width="10px" x="160px" y="170px" /><rect height="10px" width="10px" x="200px" y="170px" /><rect height="10px" width="10px" x="230px" y="170px" /><rect height="10px" width="10px" x="0px" y="180px" /><rect height="10px" width="10px" x="10px" y="180px" /><rect height="10px" width="10px" x="20px" y="180px" /><rect height="10px" width="10px" x="30px" y="180px" /><rect height="10px" width="10px" x="40px" y="180px" /><rect height="10px" width="10px" x="50px" y="180px" /><rect height="10px" width="10px" x="60px" y="180px" /><rect height="10px" width="10px" x="90px" y="180px" /><rect height="10px" width="10px" x="100px" y="180px" /><rect height="10px" width="10px" x="120px" y="180px" /><rect height="10px" width="10px" x="130px" y="180px" /><rect height="10px" width="10px" x="140px" y="180px" /><rect height="10px" width="10px" x="160px" y="180px" /><rect height="10px" width="10px" x="180px" y="180px" /><rect height="10px" width="10px" x="200px" y="180px" /><rect height="10px" width="10px" x="210px" y="180px" /><rect height="10px" width="10px" x="240px" y="180px" /><rect height="10px" width="10px" x="0px" y="190px" /><rect height="10px" width="10px" x="60px" y="190px" /><rect height="10px" width="10px" x="110px" y="190px" /><rect height="10px" width="10px" x="130px" y="190px" /><rect height="10px" width="10px" x="140px" y="190px" /><rect height="10px" width="10px" x="150px" y="190px" /><rect height="10px" width="10px" x="160px" y="190px" /><rect height="10px" width="10px" x="200px" y="190px" /><rect height="10px" width="10px" x="240px" y="190px" /><rect height="10px" width="10px" x="0px" y="200px" /><rect height="10px" width="10px" x="20px" y="200px" /><rect height="10px" width="10px" x="30px" y="200px" /><rect height="10px" width="10px" x="40px" y="200px" /><rect height="10px" width="10px" x="60px" y="200px" /><rect height="10px" width="10px" x="80px" y="200px" /><rect height="10px" width="10px" x="100px" y="200px" /><rect height="10px" width="10px" x="110px" y="200px" /><rect height="10px" width="10px" x="120px" y="200px" /><rect height="10px" width="10px" x="150px" y="200px" /><rect height="10px" width="10px" x="160px" y="200px" /><rect height="10px" width="10px" x="170px" y="200px" /><rect height="10px" width="10px" x="180px" y="200px" /><rect height="10px" width="10px" x="190px" y="200px" /><rect height="10px" width="10px" x="200px" y="200px" /><rect height="10px" width="10px" x="210px" y="200px" /><rect height="10px" width="10px" x="0px" y="210px" /><rect height="10px" width="10px" x="20px" y="210px" /><rect height="10px" width="10px" x="30px" y="210px" /><rect height="10px" width="10px" x="40px" y="210px" /><rect height="10px" width="10px" x="60px" y="210px" /><rect height="10px" width="10px" x="80px" y="210px" /><rect height="10px" width="10px" x="90px" y="210px" /><rect height="10px" width="10px" x="120px" y="210px" /><rect height="10px" width="10px" x="130px" y="210px" /><rect height="10px" width="10px" x="140px" y="210px" /><rect height="10px" width="10px" x="150px" y="210px" /><rect height="10px" width="10px" x="180px" y="210px" /><rect height="10px" width="10px" x="190px" y="210px" /><rect height="10px" width="10px" x="210px" y="210px" /><rect height="10px" width="10px" x="230px" y="210px" /><rect height="10px" width="10px" x="240px" y="210px" /><rect height="10px" width="10px" x="0px" y="220px" /><rect height="10px" width="10px" x="20px" y="220px" /><rect height="10px" width="10px" x="30px" y="220px" /><rect height="10px" width="10px" x="40px" y="220px" /><rect height="10px" width="10px" x="60px" y="220px" /><rect height="10px" width="10px" x="90px" y="220px" /><rect height="10px" width="10px" x="110px" y="220px" /><rect height="10px" width="10px" x="130px" y="220px" /><rect height="10px" width="10px" x="150px" y="220px" /><rect height="10px" width="10px" x="170px" y="220px" /><rect height="10px" width="10px" x="190px" y="220px" /><rect height="10px" width="10px" x="200px" y="220px" /><rect height="10px" width="10px" x="220px" y="220px" /><rect height="10px" width="10px" x="230px" y="220px" /><rect height="10px" width="10px" x="240px" y="220px" /><rect height="10px" width="10px" x="0px" y="230px" /><rect height="10px" width="10px" x="60px" y="230px" /><rect height="10px" width="10px" x="80px" y="230px" /><rect height="10px" width="10px" x="90px" y="230px" /><rect height="10px" width="10px" x="100px" y="230px" /><rect height="10px" width="10px" x="110px" y="230px" /><rect height="10px" width="10px" x="120px" y="230px" /><rect height="10px" width="10px" x="140px" y="230px" /><rect height="10px" width="10px" x="190px" y="230px" /><rect height="10px" width="10px" x="200px" y="230px" /><rect height="10px" width="10px" x="220px" y="230px" /><rect height="10px" width="10px" x="230px" y="230px" /><rect height="10px" width="10px" x="240px" y="230px" /><rect height="10px" width="10px" x="0px" y="240px" /><rect height="10px" width="10px" x="10px" y="240px" /><rect height="10px" width="10px" x="20px" y="240px" /><rect height="10px" width="10px" x="30px" y="240px" /><rect height="10px" width="10px" x="40px" y="240px" /><rect height="10px" width="10px" x="50px" y="240px" /><rect height="10px" width="10px" x="60px" y="240px" /><rect height="10px" width="10px" x="80px" y="240px" /><rect height="10px" width="10px" x="110px" y="240px" /><rect height="10px" width="10px" x="140px" y="240px" /><rect height="10px" width="10px" x="160px" y="240px" /><rect height="10px" width="10px" x="170px" y="240px" /><rect height="10px" width="10px" x="210px" y="240px" /><rect height="10px" width="10px" x="240px" y="240px" /></svg>