<?xml version="1.0" encoding="utf-8"?>
<!-- Generator: Adobe Illustrator 15.0.2, SVG Export Plug-In . SVG Version: 6.00 Build 0)  -->
<!DOCTYPE svg PUBLIC "-//W3C//DTD SVG 1.1//EN" "http://www.w3.org/Graphics/SVG/1.1/DTD/svg11.dtd">
<svg version="1.1" id="Layer_1" xmlns="http://www.w3.org/2000/svg" xmlns:xlink="http://www.w3.org/1999/xlink" x="0px" y="0px"
	 width="512px" height="566.611px" viewBox="0 0 512 566.611" enable-background="new 0 0 512 566.611" xml:space="preserve">
<path d="M426.667,400.777c-21.611,0-41.111,8.39-55.89,21.903L168.104,304.5c1.569-6.402,2.562-13.09,2.562-19.917
	c0-6.826-0.993-13.514-2.562-19.909l200.534-117.049c15.223,14.223,35.556,23.042,58.028,23.042
	c47.083,0,85.333-38.265,85.333-85.334C512,38.257,473.75,0,426.667,0c-47.084,0-85.334,38.257-85.334,85.333
	c0,6.819,1,13.507,2.556,19.91L143.361,222.292c-15.223-14.223-35.556-23.042-58.028-23.042C38.257,199.25,0,237.507,0,284.583
	c0,47.084,38.257,85.334,85.333,85.334c22.473,0,42.806-8.819,58.028-23.042l202.666,118.181
	c-1.416,5.972-2.277,12.236-2.277,18.639c0,45.792,37.111,82.917,82.917,82.917s82.916-37.125,82.916-82.917
	S472.473,400.777,426.667,400.777z"/>
</svg>
