<svg xmlns="http://www.w3.org/2000/svg" viewBox="0 0 228.45 230">
    <path fill="#333" d="M195.73 0H32.71C14.64 0 0 14.64 0 32.71v69.75c0 18.06 14.64 32.71 32.71 32.71h26.51V230l52.14-50.65h84.38c18.06 0 32.71-14.64 32.71-32.71V32.71C228.45 14.65 213.81 0 195.74 0Zm18.65 146.64c0 10.3-8.35 18.65-18.65 18.65h-90.08l-32.38 31.45v-61.57h36.99c2.96 7.02 10.21 11.8 18.45 11.04 8.84-.82 15.91-8.19 16.39-17.06.57-10.46-7.78-19.15-18.12-19.15-7.51 0-13.97 4.59-16.73 11.12H73.26V84.49c7.02-2.96 11.8-10.21 11.04-18.45-.82-8.85-8.19-15.92-17.06-16.4-10.46-.57-19.16 7.78-19.16 18.12 0 7.52 4.59 13.98 11.12 16.73v36.63H32.69c-10.3 0-18.65-8.35-18.65-18.65V32.71c0-10.3 8.35-18.65 18.65-18.65h163.04c10.3 0 18.65 8.35 18.65 18.65z"></path>
    <style>@media (prefers-color-scheme:dark){:root{filter:invert(100%)}}</style>
</svg>